# File created by Blade
# Date/Time:  Tue Jan 27 20:12:02 2015
# Frame Rate: 120.000 fps
#------------------------------------------------------
:FULLY-SPECIFIED
:DEGREES
1906
root 8.676979 32.170891 -3.489502 3.551510 -8.108543 -1.599560
Spine 2.480044 10.271602 -3.199367
Head 12.750074 -10.385961 3.793671
LeftShoulder -16.755017 2.242682 29.105753
LeftArm -19.954740 -37.381895 -67.199397
LeftForeArm -5.976881 0.000000 98.674044
LeftHand 17.330164 -0.000000 9.713057
LeftHandThumb1 -26.253704 0.000000 33.147579
RightShoulder -20.272148 -23.640096 -22.654195
RightArm 9.453045 -38.203568 89.467592
RightForeArm -23.953627 -0.000000 103.352269
RightHand 18.402154 -0.000000 0.948580
RightHandThumb1 -24.326973 -0.000000 -32.862282
LeftUpLeg 4.551968 1.638311 -7.979727
LeftLeg -5.719033 -0.000000 0.000000
LeftFoot -15.890131 20.010915 -15.684300
LeftToeBase 22.682684 -0.000000 -0.000000
RightUpLeg -0.629736 -63.361187 -14.201060
RightLeg 76.185477 -0.000000 -0.000000
RightFoot 25.021616 -18.670940 40.839609
RightToeBase 17.027744 -0.000000 -0.000000
1907
root 8.674883 32.170474 -3.479839 3.556816 -8.116275 -1.607021
Spine 2.497841 10.255022 -3.186421
Head 12.758988 -10.328689 3.797318
LeftShoulder -16.763256 2.248387 29.092356
LeftArm -19.934426 -37.413487 -67.226741
LeftForeArm -5.918366 0.000000 98.687479
LeftHand 17.312927 -0.000000 9.694478
LeftHandThumb1 -26.253704 0.000000 33.147579
RightShoulder -20.280390 -23.692055 -22.633238
RightArm 9.507609 -38.212770 89.426647
RightForeArm -23.981249 0.000000 103.323615
RightHand 18.425956 0.000000 0.858752
RightHandThumb1 -24.326973 -0.000000 -32.862282
LeftUpLeg 4.569250 1.658672 -7.969462
LeftLeg -5.732938 -0.000000 0.000000
LeftFoot -15.877601 20.000293 -15.666768
LeftToeBase 22.584305 -0.000000 -0.000000
RightUpLeg -0.593246 -63.320163 -14.217780
RightLeg 76.100443 -0.000000 -0.000000
RightFoot 24.553655 -18.820182 41.640337
RightToeBase 18.384494 -0.000000 -0.000000
1908
root 8.673011 32.169946 -3.470519 3.571642 -8.121196 -1.616495
Spine 2.497391 10.225887 -3.171319
Head 12.779788 -10.304671 3.816939
LeftShoulder -16.772808 2.249005 29.067637
LeftArm -19.933978 -37.461770 -67.227141
LeftForeArm -5.947450 -0.000000 98.699920
LeftHand 17.293764 -0.000000 9.684966
LeftHandThumb1 -26.253704 0.000000 33.147579
RightShoulder -20.271020 -23.721635 -22.638368
RightArm 9.531016 -38.226988 89.408823
RightForeArm -23.983280 0.000000 103.298526
RightHand 18.424978 -0.000000 0.838941
RightHandThumb1 -24.326973 -0.000000 -32.862282
LeftUpLeg 4.579293 1.643967 -7.960133
LeftLeg -5.728562 -0.000000 0.000000
LeftFoot -15.875648 19.969621 -15.634802
LeftToeBase 22.437448 -0.000000 -0.000000
RightUpLeg -0.560225 -63.335187 -14.235290
RightLeg 75.994442 -0.000000 -0.000000
RightFoot 24.515268 -18.830272 41.685345
RightToeBase 18.148417 -0.000000 -0.000000
1909
root 8.670951 32.169344 -3.456648 3.548838 -8.127364 -1.633394
Spine 2.534704 10.207762 -3.149216
Head 12.798489 -10.263796 3.839959
LeftShoulder -16.800452 2.262863 29.047627
LeftArm -19.893202 -37.484728 -67.258487
LeftForeArm -5.901728 -0.000000 98.725797
LeftHand 17.134007 -0.000000 9.478540
LeftHandThumb1 -26.253704 0.000000 33.147579
RightShoulder -20.269267 -23.751904 -22.625763
RightArm 9.557548 -38.236908 89.368632
RightForeArm -23.981605 -0.000000 103.277941
RightHand 18.403895 -0.000000 0.851090
RightHandThumb1 -24.326973 -0.000000 -32.862282
LeftUpLeg 4.645459 1.653188 -7.943342
LeftLeg -5.769455 -0.000000 0.000000
LeftFoot -15.918452 20.015627 -15.670956
LeftToeBase 22.596399 -0.000000 -0.000000
RightUpLeg -0.419723 -63.345642 -14.344796
RightLeg 75.867907 -0.000000 -0.000000
RightFoot 24.598238 -18.907729 41.501811
RightToeBase 20.240712 -0.000000 -0.000000
1910
root 8.668851 32.168571 -3.445253 3.552845 -8.143952 -1.639297
Spine 2.531630 10.194305 -3.153290
Head 12.849738 -10.205018 3.858887
LeftShoulder -16.813338 2.282883 29.032006
LeftArm -19.858344 -37.505895 -67.281024
LeftForeArm -5.825774 -0.000000 98.735896
LeftHand 17.164343 -0.000000 9.585310
LeftHandThumb1 -26.253704 0.000000 33.147579
RightShoulder -20.252879 -23.770450 -22.625045
RightArm 9.568619 -38.257117 89.350446
RightForeArm -23.946009 0.000000 103.246867
RightHand 18.396287 -0.000000 0.845282
RightHandThumb1 -24.326973 -0.000000 -32.862282
LeftUpLeg 4.669849 1.707465 -7.936424
LeftLeg -5.781924 -0.000000 0.000000
LeftFoot -15.933087 19.969846 -15.685001
LeftToeBase 22.591047 -0.000000 -0.000000
RightUpLeg -0.376613 -63.341626 -14.387064
RightLeg 75.785205 -0.000000 -0.000000
RightFoot 24.647606 -18.993595 41.291250
RightToeBase 20.848600 -0.000000 -0.000000
